<svg xmlns="http://www.w3.org/2000/svg" width="256" height="256" viewBox="0 0 67.733 67.733"><g style="font-style:normal;font-variant:normal;font-weight:400;font-stretch:normal;font-size:18.8707px;line-height:1.25;font-family:'DejaVu Sans Mono';-inkscape-font-specification:'DejaVu Sans Mono';letter-spacing:0;word-spacing:0;fill:#000;fill-opacity:1;stroke:none;stroke-width:.471768"><path d="M42.82 64.91q-2.322 1.492-5.805 2.222-3.45.73-6.535.73-12.605 0-19.505-8.326-6.866-8.293-6.27-22.557.399-9.089 3.948-16.22 3.583-7.166 9.786-11.279Q24.675 5.367 33 5.367q12.77 0 19.372 8.326 6.634 8.326 6.07 22.457-.166 4.08-1.559 8.094-1.36 4.013-4.312 6.667-2.92 2.62-7.696 2.62-6.236 0-7.96-5.638-3.583 5.639-8.89 5.639-4.877 0-7.199-4.014t-1.725-10.549q.763-8.724 4.976-13.832 4.246-5.141 9.387-5.141 3.583 0 5.64 1.061 2.056 1.028 3.914 2.455l-1.692 18.377q-.431 4.843 1.095 6.269 1.525 1.426 3.15 1.426 4.015 0 6.17-3.914 2.19-3.914 2.422-9.52.564-12.373-4.61-19.405-5.142-7.033-16.686-7.033-10.449 0-16.652 7.563-6.203 7.564-6.7 19.704-.597 12.406 4.942 19.571 5.573 7.165 16.155 7.165 2.919 0 5.904-.696 3.019-.697 5.042-1.891zM24.376 38.97q-.43 4.677.896 7.23 1.36 2.555 4.28 2.555 1.69 0 3.615-1.526 1.924-1.526 3.25-5.042l.034-.298 1.526-16.652q-1.858-.962-3.981-.962-3.616 0-6.302 3.715-2.654 3.715-3.318 10.98z" style="font-style:normal;font-variant:normal;font-weight:400;font-stretch:normal;font-size:67.9347px;font-family:Roboto;-inkscape-font-specification:Roboto;stroke-width:.471768" transform="scale(1.0734 .93161)" aria-label="@"/></g></svg>